<?xml version="1.0" encoding="utf-8"?>
<!-- Generator: Adobe Illustrator 23.0.5, SVG Export Plug-In . SVG Version: 6.00 Build 0)  -->
<svg version="1.1" id="Layer_1" xmlns="http://www.w3.org/2000/svg" xmlns:xlink="http://www.w3.org/1999/xlink" x="0px" y="0px"
	 viewBox="0 0 100 100" style="enable-background:new 0 0 100 100;" xml:space="preserve">
<g>
	<path d="M97.5,51.91c-0.4,1.37-0.89,2.69-1.93,3.74c-1.38,1.38-3.03,2.14-4.98,2.14c-9.89,0.02-19.78,0.03-29.67,0
		c-3.91-0.01-6.95-3.06-6.96-6.97c-0.03-13.82-0.02-27.63,0-41.45c0-3.37,2.17-6.02,5.45-6.83c0.15-0.04,0.29-0.11,0.43-0.17
		c10.64,0,21.27,0,31.91,0c1.78,0.52,3.42,1.31,4.44,2.93c0.55,0.87,0.88,1.87,1.31,2.82C97.5,22.72,97.5,37.32,97.5,51.91z
		 M59.88,30.02c0,6.71,0,13.41,0,20.12c0,1.48,0.24,1.73,1.71,1.73c9.43,0,18.85,0,28.28,0c1.45,0,1.69-0.23,1.69-1.65
		c0-13.41,0-26.83,0-40.24c0-1.46-0.2-1.66-1.65-1.66c-9.46,0-18.92,0-28.38,0c-1.43,0-1.66,0.23-1.66,1.67
		C59.88,16.66,59.88,23.34,59.88,30.02z"/>
	<path d="M40.17,2.37c1.71,0.45,3.24,1.17,4.35,2.62c0.98,1.27,1.52,2.69,1.53,4.29c0.01,5.94,0.04,11.87,0,17.81
		c-0.03,3.92-3.05,6.94-6.98,6.95c-9.86,0.03-19.72,0.03-29.58,0C5.52,34.03,2.53,30.98,2.51,27c-0.02-5.81-0.01-11.62,0-17.43
		c0.01-3.55,1.99-6.1,5.43-7.03c0.11-0.03,0.21-0.11,0.32-0.17C18.89,2.37,29.53,2.37,40.17,2.37z M24.29,8.31
		c-4.76,0-9.52,0-14.28,0c-1.34,0-1.57,0.23-1.57,1.55c0,5.56,0,11.13,0,16.69c0,1.3,0.26,1.56,1.58,1.56c9.49,0,18.97,0,28.46,0
		c1.35,0,1.64-0.28,1.64-1.62c0-5.53,0-11.06,0-16.6c0-1.35-0.25-1.59-1.65-1.59C33.75,8.31,29.02,8.31,24.29,8.31z"/>
	<path d="M97.5,91.62c-0.11,0.31-0.24,0.62-0.34,0.94c-0.9,2.8-3.47,4.79-6.39,4.8c-10.02,0.03-20.03,0.04-30.05,0
		c-3.65-0.01-6.7-3.01-6.74-6.68c-0.07-6.09-0.08-12.18,0-18.27c0.05-3.78,3.16-6.68,7.03-6.7c5.94-0.03,11.87-0.01,17.81-0.01
		c3.68,0,7.36,0,11.04,0c4.05,0,6.36,1.74,7.53,5.64c0.03,0.09,0.08,0.16,0.12,0.25C97.5,78.26,97.5,84.94,97.5,91.62z M75.72,91.43
		c4.79,0,9.58,0,14.37,0c1.2,0,1.47-0.27,1.47-1.47c0-5.62,0-11.25,0-16.87c0-1.17-0.3-1.46-1.5-1.46c-9.55,0-19.1,0-28.65,0
		c-1.22,0-1.53,0.31-1.53,1.53c0,5.56,0,11.13,0,16.69c0,1.32,0.26,1.58,1.56,1.58C66.2,91.43,70.96,91.43,75.72,91.43z"/>
	<path d="M2.51,69.65c0-6.77,0-13.54,0-20.32c0-4.45,2.93-7.39,7.38-7.39c9.59-0.01,19.17-0.01,28.76,0c4.44,0,7.41,2.95,7.41,7.37
		c0.01,13.57,0.01,27.15,0,40.72c0,4.39-2.96,7.32-7.35,7.33c-9.62,0-19.23,0-28.85,0c-4.42,0-7.34-2.91-7.35-7.31
		C2.5,83.25,2.51,76.45,2.51,69.65z M8.44,69.63c0,6.71,0,13.41,0,20.12c0,1.47,0.2,1.68,1.63,1.68c9.46,0,18.92,0,28.38,0
		c1.44,0,1.67-0.23,1.67-1.66c0-13.41,0-26.83,0-40.24c0-1.37-0.27-1.65-1.61-1.65c-9.49,0-18.98,0-28.47,0
		c-1.36,0-1.61,0.25-1.61,1.63C8.44,56.21,8.44,62.92,8.44,69.63z"/>
</g>
</svg>
